HIERARCHY
ROOT Hips
{
  OFFSET 2.26061 22.2878 23.7974
  CHANNELS 6 Xposition Yposition Zposition Zrotation Xrotation Yrotation
  JOINT LeftUpLeg
  {
    OFFSET 8.64259 1.95398 -2.38835
    CHANNELS 3 Zrotation Xrotation Yrotation
    JOINT LeftLeg
    {
      OFFSET 43.7702 0 0
      CHANNELS 3 Zrotation Xrotation Yrotation
      JOINT LeftFoot
      {
        OFFSET 40.6238 0 0
        CHANNELS 3 Zrotation Xrotation Yrotation
        JOINT LeftToeBase
        {
          OFFSET 12.7242 0 0
          CHANNELS 3 Zrotation Xrotation Yrotation
          End Site
          {
            OFFSET 0 0 0
          }
        }
      }
    }
  }
  JOINT RightUpLeg
  {
    OFFSET -8.2249 1.95398 -2.59336
    CHANNELS 3 Zrotation Xrotation Yrotation
    JOINT RightLeg
    {
      OFFSET 43.5653 0 0
      CHANNELS 3 Zrotation Xrotation Yrotation
      JOINT RightFoot
      {
        OFFSET 40.6238 0 0
        CHANNELS 3 Zrotation Xrotation Yrotation
        JOINT RightToeBase
        {
          OFFSET 12.7242 0 0
          CHANNELS 3 Zrotation Xrotation Yrotation
          End Site
          {
            OFFSET 0 0 0
          }
        }
      }
    }
  }
  JOINT Spine
  {
    OFFSET 0.165834 0.87714 6.61349
    CHANNELS 3 Zrotation Xrotation Yrotation
    JOINT Spine1
    {
      OFFSET 7.38963 1.71661e-005 0
      CHANNELS 3 Zrotation Xrotation Yrotation
      JOINT Spine2
      {
        OFFSET 11.9445 1.14441e-005 0
        CHANNELS 3 Zrotation Xrotation Yrotation
        JOINT Spine3
        {
          OFFSET 14.7254 4.19617e-005 0
          CHANNELS 3 Zrotation Xrotation Yrotation
          JOINT Spine4
          {
            OFFSET 10.9679 0 0
            CHANNELS 3 Zrotation Xrotation Yrotation
            JOINT RightShoulder
            {
              OFFSET 2.46616 -1.6653 3.69651
              CHANNELS 3 Zrotation Xrotation Yrotation
              JOINT RightArm
              {
                OFFSET 13.0012 0 0
                CHANNELS 3 Zrotation Xrotation Yrotation
                JOINT RightForeArm
                {
                  OFFSET 28.7848 1.52588e-005 0
                  CHANNELS 3 Zrotation Xrotation Yrotation
                  JOINT RightHand
                  {
                    OFFSET 26.5688 1.52588e-005 0
                    CHANNELS 3 Zrotation Xrotation Yrotation
                    End Site
                    {
                      OFFSET 0 0 0
                    }
                  }
                }
              }
            }
            JOINT LeftShoulder
            {
              OFFSET 2.38034 -1.29275 -3.7523
              CHANNELS 3 Zrotation Xrotation Yrotation
              JOINT LeftArm
              {
                OFFSET 16.3182 6.10351e-005 0
                CHANNELS 3 Zrotation Xrotation Yrotation
                JOINT LeftForeArm
                {
                  OFFSET 27.0901 0 0
                  CHANNELS 3 Zrotation Xrotation Yrotation
                  JOINT LeftHand
                  {
                    OFFSET 24.5451 1.52588e-005 0
                    CHANNELS 3 Zrotation Xrotation Yrotation
                    End Site
                    {
                      OFFSET 0 0 0
                    }
                  }
                }
              }
            }
            JOINT Neck
            {
              OFFSET 5.0226 -0.0266342 0
              CHANNELS 3 Zrotation Xrotation Yrotation
              JOINT Head
              {
                OFFSET 6.69363 2.86102e-005 0
                CHANNELS 3 Zrotation Xrotation Yrotation
                End Site
                {
                  OFFSET 0 0 0
                }
              }
            }
          }
        }
      }
    }
  }
}
MOTION
Frames:	13
Frame Time:	0.0416667
-46.9949 97.3694 39.8869 -81.4509 -86.2068 -81.5553 -171.346 4.83471 91.3915 -9.9188 6.07382 -0.482616 61.48 1.65965 2.39602 30.019 1.16479 -2.27699 173.138 3.67585 89.0946 -9.76496 -3.72936 -1.88891 63.3568 -2.10159 -1.13509 29.7282 0.192971 -2.58516 -0.0812287 6.83971 -90.0765 13.1944 -0.198057 -0.128425 1.52342 -0.203505 -0.119586 -21.0118 -0.1503 -0.182012 -0.99911 -0.150293 -0.182003 92.6266 -52.4703 -96.3433 22.8781 -8.72383 -0.634253 -2.92142 -27.019 -40.0117 -5.93449 -0.983242 7.18131 -103.982 -54.433 60.096 -16.1105 17.0918 -0.293149 0.0259523 12.0097 -29.5083 12.6292 1.19099 5.33995 8.44933 1.35502 3.85192 -3.32194 0.612817 -0.555924 
-46.9867 97.3402 39.9216 -79.965 -86.2121 -80.0317 -171.318 4.95993 91.4292 -10.0192 6.15684 -0.51449 61.6965 1.83129 2.5938 29.7151 0.955844 -2.52367 173.133 3.66289 89.1258 -9.60796 -3.7357 -1.84411 63.5063 -2.17551 -1.18088 29.5981 0.192835 -2.65328 -0.0828951 6.83253 -90.0851 13.2087 -0.205494 -0.144635 1.53775 -0.211651 -0.135458 -20.9974 -0.15252 -0.199699 -0.98477 -0.152522 -0.199706 92.6598 -52.2806 -96.3269 23.0636 -8.72362 -0.651463 -3.1067 -26.9394 -40.0137 -6.00127 -0.990442 7.20631 -103.978 -54.461 60.1121 -16.1271 17.073 -0.357597 0.0542449 12.087 -29.4804 12.5471 1.19165 5.39989 8.54675 1.4169 3.67784 -3.41241 0.704295 -0.356643 
-47.0015 97.3555 39.9058 -80.351 -86.1957 -80.4273 -171.349 4.951 91.4249 -10.0185 5.87759 -0.472238 61.6216 1.7002 2.14609 30.0884 1.21042 -2.18573 173.158 3.63577 89.1386 -9.60014 -3.75128 -1.87437 63.4866 -2.16874 -1.1762 29.5574 0.204108 -2.86747 -0.077735 6.83358 -90.0777 13.2066 -0.191645 -0.131577 1.53562 -0.197253 -0.123016 -20.9995 -0.143246 -0.183095 -0.986897 -0.143239 -0.183087 92.7385 -52.419 -96.1843 22.9488 -8.72338 -0.733496 -3.22082 -27.0862 -40.0624 -5.65225 -0.960418 7.14359 -104.104 -54.4559 59.9398 -16.0319 17.0416 -0.308405 -0.0147246 11.9491 -29.4115 12.4641 1.18739 5.40472 8.49958 1.37108 3.5815 -3.37352 0.679862 -0.170101 
-46.9858 97.3616 39.8926 -80.9668 -86.2442 -81.0479 -171.377 4.91807 91.3947 -10.0525 5.97736 -0.440655 61.6257 1.72668 2.1834 29.9087 1.07025 -2.13988 173.14 3.62312 89.1129 -9.65997 -3.82077 -1.882 63.3968 -2.13783 -1.15797 29.6732 0.201098 -2.76475 -0.0895759 6.83408 -90.0835 13.2017 -0.217956 -0.139859 1.53079 -0.223891 -0.130135 -21.0044 -0.165844 -0.198889 -0.991751 -0.165846 -0.198898 92.5445 -52.3378 -96.49 22.9984 -8.67318 -0.588591 -2.95234 -26.9786 -39.8658 -6.11021 -0.987838 7.02984 -104.169 -54.6538 59.9269 -15.9103 17.0545 -0.279585 -0.0214273 11.9343 -29.4624 12.6061 1.18185 5.28698 8.53114 1.47508 3.93823 -3.26908 0.711975 -0.500441 
-46.9939 97.3584 39.9148 -80.2047 -86.2542 -80.2603 -171.395 4.99143 91.4004 -10.0718 6.23478 -0.431872 61.4133 1.6009 2.5771 30.3375 1.41828 -2.4322 173.099 3.64366 89.1168 -9.62065 -3.72744 -1.81666 63.525 -2.19901 -1.19562 29.5707 0.179208 -2.42678 -0.087962 6.8324 -90.0849 13.21 -0.215457 -0.143076 1.53908 -0.221542 -0.133462 -20.9961 -0.162488 -0.201217 -0.983455 -0.162493 -0.20122 92.5986 -52.3002 -96.4152 23.0742 -8.7201 -0.63627 -2.92462 -26.8524 -39.8276 -6.01428 -0.964157 6.7902 -104.114 -54.549 59.9612 -15.9725 17.0824 -0.313672 -0.0139339 11.9727 -29.4629 12.6043 1.17937 5.26866 8.60138 1.42956 3.86354 -3.3835 0.679563 -0.443466 
-47.0074 97.3514 39.9003 -80.7697 -86.2093 -80.902 -171.41 4.88043 91.3309 -9.94657 6.20267 -0.443148 61.6136 1.82797 2.72936 29.6949 0.907589 -2.13739 173.111 3.70592 89.0715 -9.73681 -3.83726 -1.86598 63.3476 -2.11018 -1.14243 29.8247 0.201298 -2.69743 -0.0766514 6.82944 -90.0648 13.2004 -0.183374 -0.106926 1.52943 -0.18789 -0.0987594 -21.0057 -0.142759 -0.157098 -0.993082 -0.142757 -0.157097 92.6575 -52.3483 -96.3177 23.1605 -8.73699 -0.596769 -2.89544 -26.916 -39.856 -6.28395 -0.984747 6.77639 -104.019 -54.4252 60.0438 -15.999 17.1042 -0.322073 -0.0192805 11.9656 -29.4648 12.5436 1.16075 5.16674 8.54302 1.35978 3.6643 -3.32242 0.650624 -0.350532 
-47.0465 97.3592 39.9034 -81.8433 -86.2214 -82.0364 -171.328 4.68976 91.3519 -9.68393 6.26207 -0.54055 61.3402 1.7132 2.95426 30.259 1.41975 -3.22424 173.108 3.72831 89.0316 -9.9561 -3.78448 -1.902 63.6659 -2.19856 -1.18989 29.577 0.194335 -2.68865 -0.0867694 6.82555 -90.0563 13.2021 -0.19933 -0.0879474 1.5312 -0.202999 -0.0791004 -21.004 -0.163684 -0.143787 -0.991371 -0.16368 -0.143786 92.4818 -52.4412 -96.5654 23.0475 -8.68955 -0.562275 -2.79158 -26.8974 -39.7537 -6.10729 -0.964704 6.68878 -104.267 -54.6212 59.782 -15.7663 17.0753 -0.0802006 0.0754271 11.9305 -29.6793 12.4139 1.16515 5.28458 8.48734 1.48002 3.63773 -3.25354 0.776596 -0.168496 
-47.0241 97.3641 39.9008 -81.4805 -86.2232 -81.6124 -171.37 4.83341 91.3773 -9.94034 6.11707 -0.467449 61.5218 1.70992 2.44191 29.8755 1.0432 -2.11607 173.145 3.6547 89.0911 -9.77336 -3.78918 -1.90308 63.5336 -2.16356 -1.17082 29.4784 0.188271 -2.63051 -0.086438 6.82144 -90.0646 13.2174 -0.202644 -0.104027 1.5465 -0.207019 -0.0950132 -20.9887 -0.16201 -0.160117 -0.976063 -0.162011 -0.160125 92.5544 -52.266 -96.4876 23.284 -8.72595 -0.507681 -2.88966 -26.7723 -39.8363 -5.90057 -0.943129 6.60908 -104.149 -54.6022 59.9349 -15.8724 17.0358 -0.182957 0.0964076 12.0723 -29.5366 12.5338 1.15706 5.14484 8.41013 1.40574 3.80441 -3.27791 0.674072 -0.335853 
-47.0187 97.3571 39.9114 -80.8725 -86.2919 -80.9944 -171.413 4.86902 91.3595 -9.92936 6.18562 -0.430516 61.3975 1.66536 2.64054 30.1842 1.32366 -2.70272 173.148 3.65114 89.0989 -9.7297 -3.56778 -1.89345 63.534 -2.15745 -1.16701 29.4795 0.169763 -2.3099 -0.0871647 6.818 -90.0698 13.2164 -0.206636 -0.11412 1.54545 -0.21146 -0.104924 -20.9898 -0.162788 -0.170949 -0.977101 -0.162786 -0.170952 92.6132 -52.224 -96.4069 23.2212 -8.72378 -0.616283 -2.94687 -26.9921 -39.8258 -5.90045 -0.948714 6.66275 -104.244 -54.5802 59.7962 -15.7968 17.1576 -0.236297 -0.0468185 11.9331 -29.5119 12.608 1.16507 5.15779 8.4819 1.45299 3.81421 -3.33331 0.717517 -0.175864 
-47.0279 97.3564 39.8831 -81.6618 -86.322 -81.8214 -171.392 4.81545 91.3517 -9.9534 5.93354 -0.441444 61.6427 1.77881 1.94318 29.8641 0.996906 -1.6674 173.052 3.6891 89.0307 -9.88539 -3.8705 -1.83505 63.4444 -2.14184 -1.1596 29.925 0.218078 -2.95965 -0.0958019 6.81606 -90.0623 13.2122 -0.220142 -0.0973866 1.54123 -0.224217 -0.0876152 -20.994 -0.180697 -0.159045 -0.981362 -0.180698 -0.159053 92.5911 -52.2844 -96.4293 23.1294 -8.70794 -0.697172 -3.05717 -27.2889 -39.8815 -5.72231 -0.948559 6.83503 -104.164 -54.5518 59.8947 -15.8115 17.1775 -0.206612 -0.0534002 11.9151 -29.5585 12.4889 1.17279 5.29394 8.41948 1.4693 3.72349 -3.23804 0.752207 -0.191136 
-47.0688 97.3516 39.9007 -82.9557 -86.2169 -83.1593 -171.331 4.68166 91.3712 -9.84937 6.1634 -0.523571 61.4505 1.7227 2.60408 30.2525 1.3774 -2.73564 173.114 3.59038 89.0362 -9.84775 -3.79429 -1.91611 63.6944 -2.21914 -1.20246 29.633 0.196022 -2.69222 -0.0705381 6.81613 -90.0637 13.1934 -0.170735 -0.106693 1.52243 -0.175265 -0.0990797 -21.0127 -0.130777 -0.153076 -1.00011 -0.130768 -0.153073 92.6646 -52.2544 -96.3242 23.13 -8.6833 -0.73706 -3.13424 -27.4225 -39.7843 -5.49183 -0.919894 6.61182 -104.363 -54.525 59.6134 -15.8753 17.1634 -0.136257 0.045328 12.031 -29.6565 12.5734 1.19221 5.38598 8.48502 1.44558 3.83231 -3.22122 0.705807 -0.272316 
-47.0443 97.3649 39.9007 -81.9947 -86.2541 -82.2236 -171.406 4.71618 91.296 -9.80518 6.11408 -0.467636 61.485 1.73593 2.39166 29.8559 1.03649 -2.21505 173.038 3.72305 88.9691 -9.96114 -3.95079 -1.86573 63.5243 -2.16545 -1.17285 29.6747 0.196557 -2.68229 -0.0830277 6.81906 -90.0574 13.2165 -0.192414 -0.0910202 1.54555 -0.196228 -0.0824731 -20.9897 -0.156171 -0.144642 -0.977011 -0.156164 -0.144643 92.5991 -52.094 -96.451 23.3474 -8.73173 -0.670076 -3.26459 -26.8584 -39.9257 -5.76504 -0.945885 6.77423 -104.142 -54.4432 59.8815 -16.0703 17.0709 -0.124183 0.0669551 11.9897 -29.6093 12.5375 1.17622 5.28811 8.35301 1.42672 3.77425 -3.16203 0.702146 -0.308625 
-47.0529 97.3502 39.9107 -81.6295 -86.3127 -81.8461 -171.389 4.73124 91.3141 -9.79479 6.06289 -0.479565 61.5305 1.78129 2.44118 29.9495 1.13161 -2.51111 173.09 3.67157 89.0154 -9.887 -3.70232 -1.88906 63.6155 -2.17788 -1.17788 29.642 0.191916 -2.61813 -0.0809309 6.82887 -90.0592 13.217 -0.189106 -0.0949084 1.54611 -0.193099 -0.0864906 -20.9891 -0.151845 -0.14735 -0.97644 -0.151845 -0.147354 92.6449 -52.1272 -96.376 23.1554 -8.82645 -0.755805 -3.06141 -27.0969 -39.8276 -5.78902 -0.948568 6.76857 -104.168 -54.3916 59.826 -16.0606 17.1055 -0.148839 0.0859944 12.0927 -29.566 12.5796 1.18059 5.29362 8.38143 1.4126 3.74153 -3.22729 0.693395 -0.332225 
